<svg width="92" height="40" viewBox="0 0 92 40" fill="none" xmlns="http://www.w3.org/2000/svg">
<path d="M91.75 20C91.75 22.6782 90.5027 25.2496 88.2059 27.6106C85.908 29.9727 82.5707 32.1114 78.4272 33.9129C70.1412 37.5155 58.6766 39.75 46 39.75C33.3234 39.75 21.8588 37.5155 13.5728 33.9129C9.42934 32.1114 6.09203 29.9727 3.7941 27.6106C1.49731 25.2496 0.25 22.6782 0.25 20C0.25 17.3218 1.49731 14.7504 3.7941 12.3894C6.09203 10.0273 9.42934 7.88862 13.5728 6.08713C21.8588 2.48449 33.3234 0.25 46 0.25C58.6766 0.25 70.1412 2.48449 78.4272 6.08713C82.5707 7.88862 85.908 10.0273 88.2059 12.3894C90.5027 14.7504 91.75 17.3218 91.75 20Z" stroke="#0DB760" stroke-width="0.5"/>
</svg>
