<svg width="99" height="42" viewBox="0 0 99 42" fill="none" xmlns="http://www.w3.org/2000/svg">
<path d="M9.44602 28L5.41193 13.4545H7.72017L10.554 24.7188H10.6889L13.6364 13.4545H15.9233L18.8707 24.7259H19.0057L21.8324 13.4545H24.1477L20.1065 28H17.8977L14.8366 17.1051H14.723L11.6619 28H9.44602ZM29.6058 28.2202C28.531 28.2202 27.6054 27.9905 26.8288 27.5312C26.0571 27.0672 25.4605 26.4162 25.0391 25.5781C24.6224 24.7353 24.4141 23.7481 24.4141 22.6165C24.4141 21.4991 24.6224 20.5142 25.0391 19.6619C25.4605 18.8097 26.0476 18.1444 26.8004 17.6662C27.558 17.188 28.4434 16.9489 29.4567 16.9489C30.0722 16.9489 30.6688 17.0507 31.2464 17.2543C31.8241 17.4579 32.3426 17.7775 32.8018 18.2131C33.2611 18.6487 33.6233 19.2145 33.8885 19.9105C34.1536 20.6018 34.2862 21.4422 34.2862 22.4318V23.1847H25.6143V21.5938H32.2053C32.2053 21.035 32.0916 20.5402 31.8643 20.1094C31.6371 19.6738 31.3175 19.3305 30.9055 19.0795C30.4983 18.8286 30.0201 18.7031 29.4709 18.7031C28.8743 18.7031 28.3535 18.8499 27.9084 19.1435C27.468 19.4323 27.1271 19.8111 26.8857 20.2798C26.6489 20.7438 26.5305 21.2481 26.5305 21.7926V23.0355C26.5305 23.7647 26.6584 24.3849 26.9141 24.8963C27.1745 25.4077 27.5367 25.7983 28.0007 26.0682C28.4647 26.3333 29.0069 26.4659 29.6271 26.4659C30.0296 26.4659 30.3965 26.4091 30.728 26.2955C31.0594 26.1771 31.3459 26.0019 31.5874 25.7699C31.8288 25.5379 32.0135 25.2514 32.1413 24.9105L34.1513 25.2727C33.9903 25.8646 33.7015 26.383 33.2848 26.8281C32.8729 27.2685 32.3544 27.6117 31.7294 27.858C31.1091 28.0994 30.4013 28.2202 29.6058 28.2202ZM38.766 13.4545V28L36.6424 28V13.4545H38.766ZM46.218 28.2202C45.1622 28.2202 44.2531 27.9811 43.4908 27.5028C42.7332 27.0199 42.1508 26.3546 41.7436 25.5071C41.3364 24.6596 41.1328 23.6889 41.1328 22.5952C41.1328 21.4872 41.3411 20.5095 41.7578 19.6619C42.1745 18.8097 42.7616 18.1444 43.5192 17.6662C44.2768 17.188 45.1693 16.9489 46.1967 16.9489C47.0253 16.9489 47.764 17.1027 48.4126 17.4105C49.0613 17.7135 49.5845 18.1397 49.9822 18.6889C50.3847 19.2382 50.6238 19.8797 50.6996 20.6136H48.6328C48.5192 20.1023 48.2588 19.6619 47.8516 19.2926C47.4491 18.9233 46.9093 18.7386 46.2322 18.7386C45.6404 18.7386 45.1219 18.8949 44.6768 19.2074C44.2365 19.5152 43.8932 19.9555 43.647 20.5284C43.4008 21.0966 43.2777 21.7689 43.2777 22.5455C43.2777 23.3409 43.3984 24.0275 43.6399 24.6051C43.8814 25.1828 44.2223 25.6302 44.6626 25.9474C45.1077 26.2647 45.6309 26.4233 46.2322 26.4233C46.6347 26.4233 46.9993 26.3499 47.326 26.2031C47.6574 26.0516 47.9344 25.8362 48.157 25.5568C48.3842 25.2775 48.5429 24.9413 48.6328 24.5483H50.6996C50.6238 25.2538 50.3942 25.8835 50.0107 26.4375C49.6271 26.9915 49.1134 27.4271 48.4695 27.7443C47.8303 28.0616 47.0798 28.2202 46.218 28.2202ZM57.5657 28.2202C56.543 28.2202 55.6504 27.9858 54.8881 27.517C54.1258 27.0483 53.534 26.3925 53.1126 25.5497C52.6912 24.7069 52.4805 23.7221 52.4805 22.5952C52.4805 21.4635 52.6912 20.474 53.1126 19.6264C53.534 18.7789 54.1258 18.1207 54.8881 17.652C55.6504 17.1832 56.543 16.9489 57.5657 16.9489C58.5884 16.9489 59.4809 17.1832 60.2433 17.652C61.0056 18.1207 61.5974 18.7789 62.0188 19.6264C62.4402 20.474 62.6509 21.4635 62.6509 22.5952C62.6509 23.7221 62.4402 24.7069 62.0188 25.5497C61.5974 26.3925 61.0056 27.0483 60.2433 27.517C59.4809 27.9858 58.5884 28.2202 57.5657 28.2202ZM57.5728 26.4375C58.2357 26.4375 58.7849 26.2623 59.2205 25.9119C59.6561 25.5616 59.9781 25.0952 60.1864 24.5128C60.3995 23.9304 60.506 23.2888 60.506 22.5881C60.506 21.892 60.3995 21.2528 60.1864 20.6705C59.9781 20.0833 59.6561 19.6122 59.2205 19.2571C58.7849 18.902 58.2357 18.7244 57.5728 18.7244C56.9052 18.7244 56.3512 18.902 55.9109 19.2571C55.4753 19.6122 55.1509 20.0833 54.9379 20.6705C54.7295 21.2528 54.6254 21.892 54.6254 22.5881C54.6254 23.2888 54.7295 23.9304 54.9379 24.5128C55.1509 25.0952 55.4753 25.5616 55.9109 25.9119C56.3512 26.2623 56.9052 26.4375 57.5728 26.4375ZM65.0213 28V17.0909H67.0597V18.8665H67.1946C67.4219 18.2652 67.7936 17.7964 68.3097 17.4602C68.8258 17.1193 69.4437 16.9489 70.1634 16.9489C70.8925 16.9489 71.5033 17.1193 71.9957 17.4602C72.4929 17.8011 72.8598 18.2699 73.0966 18.8665H73.2102C73.4706 18.2841 73.8849 17.8201 74.4531 17.4744C75.0213 17.1241 75.6984 16.9489 76.4844 16.9489C77.474 16.9489 78.2812 17.259 78.9062 17.8793C79.536 18.4995 79.8509 19.4347 79.8509 20.6847V28H77.7273V20.8835C77.7273 20.1449 77.526 19.6098 77.1236 19.2784C76.7211 18.947 76.2405 18.7812 75.6818 18.7812C74.9905 18.7812 74.4531 18.9943 74.0696 19.4205C73.6861 19.8419 73.4943 20.384 73.4943 21.0469V28H71.3778V20.7486C71.3778 20.1567 71.1932 19.6809 70.8239 19.321C70.4545 18.9612 69.974 18.7812 69.3821 18.7812C68.9796 18.7812 68.608 18.8878 68.267 19.1009C67.9309 19.3092 67.6586 19.6004 67.4503 19.9744C67.2467 20.3485 67.1449 20.7817 67.1449 21.2741V28H65.0213ZM87.3988 28.2202C86.324 28.2202 85.3983 27.9905 84.6218 27.5312C83.85 27.0672 83.2534 26.4162 82.832 25.5781C82.4154 24.7353 82.207 23.7481 82.207 22.6165C82.207 21.4991 82.4154 20.5142 82.832 19.6619C83.2534 18.8097 83.8406 18.1444 84.5934 17.6662C85.351 17.188 86.2364 16.9489 87.2496 16.9489C87.8652 16.9489 88.4618 17.0507 89.0394 17.2543C89.6171 17.4579 90.1355 17.7775 90.5948 18.2131C91.0541 18.6487 91.4163 19.2145 91.6815 19.9105C91.9466 20.6018 92.0792 21.4422 92.0792 22.4318V23.1847H83.4073V21.5937L89.9982 21.5937C89.9982 21.035 89.8846 20.5402 89.6573 20.1094C89.43 19.6738 89.1104 19.3305 88.6985 19.0795C88.2913 18.8286 87.8131 18.7031 87.2638 18.7031C86.6673 18.7031 86.1464 18.8499 85.7013 19.1435C85.261 19.4323 84.9201 19.8111 84.6786 20.2798C84.4419 20.7438 84.3235 21.2481 84.3235 21.7926V23.0355C84.3235 23.7647 84.4513 24.3849 84.707 24.8963C84.9674 25.4077 85.3297 25.7983 85.7937 26.0682C86.2577 26.3333 86.7998 26.4659 87.4201 26.4659C87.8226 26.4659 88.1895 26.4091 88.521 26.2955C88.8524 26.1771 89.1388 26.0019 89.3803 25.7699C89.6218 25.5379 89.8065 25.2514 89.9343 24.9105L91.9442 25.2727C91.7833 25.8646 91.4944 26.383 91.0778 26.8281C90.6658 27.2685 90.1474 27.6117 89.5224 27.858C88.9021 28.0994 88.1942 28.2202 87.3988 28.2202Z" fill="#0DB760"/>
<path d="M98.75 21C98.75 23.814 97.4068 26.5164 94.933 28.9976C92.4582 31.4799 88.8647 33.7268 84.4042 35.6191C75.4841 39.4034 63.1438 41.75 49.5 41.75C35.8562 41.75 23.5159 39.4034 14.5959 35.6191C10.1354 33.7268 6.54176 31.4799 4.067 28.9976C1.59324 26.5164 0.25 23.814 0.25 21C0.25 18.186 1.59324 15.4836 4.067 13.0024C6.54176 10.5201 10.1354 8.27324 14.5959 6.3809C23.5159 2.59664 35.8562 0.25 49.5 0.25C63.1438 0.25 75.4841 2.59664 84.4042 6.3809C88.8647 8.27324 92.4582 10.5201 94.933 13.0024C97.4068 15.4836 98.75 18.186 98.75 21Z" stroke="#0DB760" stroke-width="0.5"/>
</svg>
